<svg xmlns="http://www.w3.org/2000/svg" viewBox="0 0 32 32">
  <defs>
    <linearGradient id="g" x1="0" y1="0" x2="1" y2="1">
      <stop offset="0" stop-color="#fff1e6"/>
      <stop offset="0.5" stop-color="#ff8a3d"/>
      <stop offset="1" stop-color="#e5484d"/>
    </linearGradient>
  </defs>
  <!-- four dingbat tiles: star, heart, check, diamond -->
  <g fill="url(#g)">
    <path d="M9 3.2l1.6 3.4 3.7.4-2.8 2.5.8 3.7L9 11.3l-3.3 1.9.8-3.7L3.7 7l3.7-.4z"/>
    <path d="M23 13.4s-5.4-3.2-5.4-6.6c0-1.6 1.2-2.8 2.7-2.8 1.2 0 2.1.7 2.7 1.6.6-.9 1.5-1.6 2.7-1.6 1.5 0 2.7 1.2 2.7 2.8 0 3.4-5.4 6.6-5.4 6.6z"/>
    <path d="M23 18.2l5 5-5 5-5-5z"/>
  </g>
  <path d="M4.5 23.5l3 3.2 6-7.2" fill="none" stroke="url(#g)" stroke-width="2.6" stroke-linecap="round" stroke-linejoin="round"/>
</svg>
